<svg xmlns="http://www.w3.org/2000/svg" version="1.1" xmlns:xlink="http://www.w3.org/1999/xlink" viewBox="0 0 200 200"><rect width="200" height="200" fill="url('#gradient')"></rect><defs><linearGradient id="gradient" gradientTransform="rotate(194 0.5 0.5)"><stop offset="0%" stop-color="#472027"></stop><stop offset="100%" stop-color="#192025"></stop></linearGradient></defs><g><g fill="#f3bd7d" transform="matrix(2.2775800711743774,0,0,2.2775800711743774,-0.47177141597264693,116.86770664839558)" stroke="#c06a3e" stroke-width="0.35"><path d="M10.11-14.22L12.09-5.30L13.72-14.22L17.12-14.22L14.10 0L10.55 0L8.64-8.11L6.78 0L3.23 0L0.21-14.22L3.61-14.22L5.24-5.30L7.20-14.22L10.11-14.22ZM27.23 0L23.94 0Q23.76-0.32 23.62-0.95L23.62-0.95Q22.71 0.20 21.08 0.20L21.08 0.20Q19.59 0.20 18.54-0.71Q17.50-1.61 17.50-2.98L17.50-2.98Q17.50-4.70 18.77-5.58Q20.04-6.46 22.46-6.46L22.46-6.46L23.48-6.46L23.48-7.01Q23.48-8.47 22.22-8.47L22.22-8.47Q21.04-8.47 21.04-7.31L21.04-7.31L17.75-7.31Q17.75-8.85 19.06-9.80Q20.36-10.76 22.38-10.76Q24.40-10.76 25.58-9.78Q26.75-8.79 26.78-7.07L26.78-7.07L26.78-2.39Q26.80-0.94 27.23-0.17L27.23-0.17L27.23 0ZM21.88-2.15L21.88-2.15Q22.49-2.15 22.90-2.41Q23.30-2.68 23.48-3.01L23.48-3.01L23.48-4.70L22.52-4.70Q20.80-4.70 20.80-3.15L20.80-3.15Q20.80-2.71 21.10-2.43Q21.41-2.15 21.88-2.15ZM34.13-2.97L34.13-2.97Q34.13-3.39 33.69-3.64Q33.25-3.90 32.02-4.17Q30.79-4.44 29.99-4.89Q29.19-5.33 28.77-5.97Q28.35-6.60 28.35-7.42L28.35-7.42Q28.35-8.88 29.55-9.82Q30.75-10.76 32.70-10.76L32.70-10.76Q34.79-10.76 36.05-9.81Q37.32-8.87 37.32-7.32L37.32-7.32L34.02-7.32Q34.02-8.59 32.69-8.59L32.69-8.59Q32.17-8.59 31.82-8.31Q31.46-8.02 31.46-7.59L31.46-7.59Q31.46-7.15 31.89-6.88Q32.32-6.60 33.27-6.43Q34.21-6.25 34.92-6.01L34.92-6.01Q37.30-5.19 37.30-3.07L37.30-3.07Q37.30-1.62 36.02-0.71Q34.74 0.20 32.70 0.20L32.70 0.20Q31.34 0.20 30.27-0.29Q29.21-0.78 28.61-1.62Q28.02-2.46 28.02-3.39L28.02-3.39L31.09-3.39Q31.11-2.66 31.58-2.32Q32.05-1.98 32.78-1.98L32.78-1.98Q33.46-1.98 33.79-2.26Q34.13-2.53 34.13-2.97ZM45.39 0L43.09-3.94L42.16-3.01L42.16 0L38.87 0L38.87-15.01L42.16-15.01L42.16-7.04L42.49-7.48L44.97-10.57L48.92-10.57L45.21-6.22L49.16 0L45.39 0ZM58.03-4.81L61.44-4.81Q61.37-3.33 60.63-2.19Q59.90-1.05 58.58-0.43Q57.26 0.20 55.56 0.20L55.56 0.20Q52.75 0.20 51.14-1.63Q49.53-3.46 49.53-6.79L49.53-6.79L49.53-7.49Q49.53-9.58 50.26-11.15Q50.99-12.71 52.35-13.57Q53.72-14.42 55.52-14.42L55.52-14.42Q58.11-14.42 59.68-13.06Q61.25-11.70 61.46-9.31L61.46-9.31L58.05-9.31Q58.01-10.61 57.39-11.17Q56.78-11.74 55.52-11.74L55.52-11.74Q54.24-11.74 53.64-10.78Q53.05-9.82 53.02-7.72L53.02-7.72L53.02-6.72Q53.02-4.44 53.59-3.47Q54.16-2.49 55.56-2.49L55.56-2.49Q56.74-2.49 57.36-3.05Q57.99-3.60 58.03-4.81L58.03-4.81ZM72.15 0L68.86 0Q68.68-0.32 68.54-0.95L68.54-0.95Q67.64 0.20 66.01 0.20L66.01 0.20Q64.51 0.20 63.47-0.71Q62.42-1.61 62.42-2.98L62.42-2.98Q62.42-4.70 63.69-5.58Q64.96-6.46 67.38-6.46L67.38-6.46L68.40-6.46L68.40-7.01Q68.40-8.47 67.14-8.47L67.14-8.47Q65.97-8.47 65.97-7.31L65.97-7.31L62.68-7.31Q62.68-8.85 63.98-9.80Q65.28-10.76 67.30-10.76Q69.33-10.76 70.50-9.78Q71.67-8.79 71.70-7.07L71.70-7.07L71.70-2.39Q71.72-0.94 72.15-0.17L72.15-0.17L72.15 0ZM66.80-2.15L66.80-2.15Q67.41-2.15 67.82-2.41Q68.22-2.68 68.40-3.01L68.40-3.01L68.40-4.70L67.44-4.70Q65.72-4.70 65.72-3.15L65.72-3.15Q65.72-2.71 66.03-2.43Q66.33-2.15 66.80-2.15ZM76.99-15L76.99 0L73.69 0L73.69-15L76.99-15ZM83.49-2.34L83.49-2.34Q84.18-2.34 84.56-2.72Q84.94-3.10 84.93-3.77L84.93-3.77L88.02-3.77Q88.02-2.03 86.77-0.92Q85.53 0.20 83.56 0.20L83.56 0.20Q81.26 0.20 79.93-1.25Q78.60-2.70 78.60-5.25L78.60-5.25L78.60-5.39Q78.60-6.99 79.19-8.22Q79.79-9.44 80.90-10.10Q82.01-10.76 83.54-10.76L83.54-10.76Q85.60-10.76 86.81-9.62Q88.02-8.48 88.02-6.52L88.02-6.52L84.93-6.52Q84.93-7.34 84.53-7.78Q84.13-8.22 83.46-8.22L83.46-8.22Q82.18-8.22 81.96-6.59L81.96-6.59Q81.89-6.07 81.89-5.17L81.89-5.17Q81.89-3.57 82.28-2.96Q82.66-2.34 83.49-2.34Z"></path></g></g></svg>